<svg width="25" height="24" viewBox="0 0 25 24" fill="none" xmlns="http://www.w3.org/2000/svg">
<mask id="mask0_10_56" style="mask-type:alpha" maskUnits="userSpaceOnUse" x="0" y="0" width="25" height="24">
<rect x="0.642578" width="24" height="24" fill="#D9D9D9"/>
</mask>
<g mask="url(#mask0_10_56)">
<path d="M3.64258 22V20H5.64258V16.8C5.05924 16.6 4.58008 16.2458 4.20508 15.7375C3.83008 15.2292 3.64258 14.65 3.64258 14V6H9.64258V14C9.64258 14.65 9.45508 15.2292 9.08008 15.7375C8.70508 16.2458 8.22591 16.6 7.64258 16.8V20H9.64258V22H3.64258ZM5.64258 11H7.64258V8H5.64258V11ZM13.6426 22C13.0926 22 12.6217 21.8042 12.2301 21.4125C11.8384 21.0208 11.6426 20.55 11.6426 20V10.45C11.6426 10.0167 11.7676 9.62917 12.0176 9.2875C12.2676 8.94583 12.5926 8.7 12.9926 8.55L13.9426 8.2C14.1759 8.11667 14.3509 7.99583 14.4676 7.8375C14.5842 7.67917 14.6426 7.48333 14.6426 7.25V3C14.6426 2.71667 14.7384 2.47917 14.9301 2.2875C15.1217 2.09583 15.3592 2 15.6426 2H18.6426C18.9259 2 19.1634 2.09583 19.3551 2.2875C19.5467 2.47917 19.6426 2.71667 19.6426 3V7.25C19.6426 7.48333 19.7009 7.67917 19.8176 7.8375C19.9342 7.99583 20.1092 8.11667 20.3426 8.2L21.2926 8.55C21.6926 8.7 22.0176 8.94583 22.2676 9.2875C22.5176 9.62917 22.6426 10.0167 22.6426 10.45V20C22.6426 20.55 22.4467 21.0208 22.0551 21.4125C21.6634 21.8042 21.1926 22 20.6426 22H13.6426ZM16.6426 5H17.6426V4H16.6426V5ZM13.6426 12H20.6426V10.45L19.6926 10.1C19.0592 9.86667 18.5592 9.5 18.1926 9C17.8259 8.5 17.6426 7.93333 17.6426 7.3V7H16.6426V7.3C16.6426 7.93333 16.4592 8.5 16.0926 9C15.7259 9.5 15.2259 9.86667 14.5926 10.1L13.6426 10.45V12ZM13.6426 20H20.6426V18H13.6426V20Z" fill="black"/>
</g>
</svg>
