<svg width="25" height="24" viewBox="0 0 25 24" fill="none" xmlns="http://www.w3.org/2000/svg">
<mask id="mask0_6_771" style="mask-type:alpha" maskUnits="userSpaceOnUse" x="0" y="0" width="25" height="24">
<rect x="0.642578" width="24" height="24" fill="#D9D9D9"/>
</mask>
<g mask="url(#mask0_6_771)">
<path d="M20.2426 21L13.9426 14.7C13.4426 15.1 12.8676 15.4167 12.2176 15.65C11.5676 15.8833 10.8759 16 10.1426 16C8.32591 16 6.78841 15.3708 5.53008 14.1125C4.27174 12.8542 3.64258 11.3167 3.64258 9.5C3.64258 7.68333 4.27174 6.14583 5.53008 4.8875C6.78841 3.62917 8.32591 3 10.1426 3C11.9592 3 13.4967 3.62917 14.7551 4.8875C16.0134 6.14583 16.6426 7.68333 16.6426 9.5C16.6426 10.2333 16.5259 10.925 16.2926 11.575C16.0592 12.225 15.7426 12.8 15.3426 13.3L21.6426 19.6L20.2426 21ZM10.1426 14C11.3926 14 12.4551 13.5625 13.3301 12.6875C14.2051 11.8125 14.6426 10.75 14.6426 9.5C14.6426 8.25 14.2051 7.1875 13.3301 6.3125C12.4551 5.4375 11.3926 5 10.1426 5C8.89258 5 7.83008 5.4375 6.95508 6.3125C6.08008 7.1875 5.64258 8.25 5.64258 9.5C5.64258 10.75 6.08008 11.8125 6.95508 12.6875C7.83008 13.5625 8.89258 14 10.1426 14Z" fill="black"/>
</g>
</svg>
