<svg width="480" height="99" viewBox="0 0 480 99" fill="none" xmlns="http://www.w3.org/2000/svg">
<path fill-rule="evenodd" clip-rule="evenodd" d="M227.15 55.9873C226.607 54.6607 226.336 53.2437 226.336 51.7363C226.336 50.2891 226.607 48.9625 227.15 47.7565C227.753 46.4903 228.506 45.3748 229.411 44.41C230.376 43.4452 231.491 42.6915 232.758 42.1488C234.084 41.6061 235.471 41.3347 236.918 41.3347C238.365 41.3347 239.722 41.6061 240.988 42.1488C242.315 42.6915 243.43 43.4452 244.335 44.41C245.3 45.3748 246.053 46.5204 246.596 47.847C247.199 49.1133 247.501 50.47 247.501 51.9172C247.501 53.3643 247.199 54.721 246.596 55.9873C246.053 57.2536 245.3 58.3691 244.335 59.3339C243.43 60.2987 242.315 61.0524 240.988 61.5951C239.722 62.1378 238.365 62.4091 236.918 62.4091C235.411 62.4091 233.994 62.1378 232.667 61.5951C231.401 61.0524 230.285 60.2987 229.32 59.3339C228.416 58.3691 227.692 57.2536 227.15 55.9873ZM263.419 0H246.958V33.2849C243.159 29.2449 238.365 27.2248 232.577 27.2248C229.14 27.2248 225.974 27.8881 223.08 29.2147C220.246 30.481 217.803 32.2296 215.753 34.4607C213.703 36.6917 212.105 39.3147 210.96 42.3297C209.874 45.2843 209.331 48.4198 209.331 51.7363C209.331 55.2336 209.904 58.4897 211.05 61.5047C212.256 64.5196 213.914 67.1426 216.025 69.3736C218.135 71.6047 220.607 73.3533 223.441 74.6196C226.275 75.8859 229.381 76.519 232.758 76.519C238.727 76.519 243.461 74.3181 246.958 69.9163V75.0718H263.419V0ZM289.755 51.7362C289.755 53.2437 290.027 54.6607 290.569 55.9873C291.112 57.2536 291.836 58.3691 292.74 59.3339C293.705 60.2986 294.82 61.0524 296.087 61.5951C297.413 62.1378 298.83 62.4091 300.338 62.4091C301.785 62.4091 303.142 62.1378 304.408 61.5951C305.734 61.0524 306.85 60.2986 307.754 59.3339C308.719 58.3691 309.473 57.2536 310.016 55.9873C310.619 54.721 310.92 53.3643 310.92 51.9171C310.92 50.47 310.619 49.1132 310.016 47.847C309.473 46.5204 308.719 45.3747 307.754 44.41C306.85 43.4452 305.734 42.6914 304.408 42.1487C303.142 41.6061 301.785 41.3347 300.338 41.3347C298.83 41.3347 297.413 41.6061 296.087 42.1487C294.82 42.6914 293.705 43.4452 292.74 44.41C291.836 45.3747 291.112 46.4902 290.569 47.7565C290.027 48.9625 289.755 50.2891 289.755 51.7362ZM310.377 28.672H326.839V75.0718H310.377V69.9163C306.88 74.3181 302.147 76.519 296.177 76.519C292.8 76.519 289.695 75.916 286.861 74.71C284.027 73.4438 281.555 71.6951 279.444 69.464C277.334 67.233 275.676 64.61 274.47 61.5951C273.324 58.5801 272.751 55.2939 272.751 51.7362C272.751 48.4198 273.324 45.2843 274.47 42.3296C275.615 39.3147 277.213 36.6917 279.263 34.4607C281.314 32.2296 283.756 30.481 286.59 29.2147C289.424 27.8881 292.559 27.2248 295.996 27.2248C301.785 27.2248 306.579 29.2448 310.377 33.2848V28.672ZM443.73 55.9873C443.188 54.6607 442.916 53.2437 442.916 51.7362C442.916 50.2891 443.188 48.9625 443.73 47.7565C444.273 46.4902 444.997 45.3747 445.901 44.41C446.866 43.4452 447.981 42.6914 449.248 42.1487C450.574 41.6061 451.991 41.3347 453.499 41.3347C454.946 41.3347 456.303 41.6061 457.569 42.1487C458.896 42.6914 460.011 43.4452 460.915 44.41C461.88 45.3747 462.634 46.5204 463.177 47.847C463.78 49.1132 464.081 50.47 464.081 51.9171C464.081 53.3643 463.78 54.721 463.177 55.9873C462.634 57.2536 461.88 58.3691 460.915 59.3339C460.011 60.2986 458.896 61.0524 457.569 61.5951C456.303 62.1378 454.946 62.4091 453.499 62.4091C451.991 62.4091 450.574 62.1378 449.248 61.5951C447.981 61.0524 446.866 60.2986 445.901 59.3339C444.997 58.3691 444.273 57.2536 443.73 55.9873ZM480 28.672H463.539V33.2848C459.74 29.2448 454.946 27.2248 449.157 27.2248C445.72 27.2248 442.585 27.8881 439.751 29.2147C436.917 30.481 434.475 32.2296 432.424 34.4607C430.374 36.6917 428.776 39.3147 427.631 42.3296C426.485 45.2843 425.912 48.4198 425.912 51.7362C425.912 55.2939 426.485 58.5801 427.631 61.5951C428.837 64.61 430.495 67.233 432.605 69.464C434.716 71.6951 437.188 73.4438 440.022 74.71C442.856 75.916 445.961 76.519 449.338 76.519C455.308 76.519 460.041 74.3181 463.539 69.9163V75.0718H480V28.672ZM354.35 28.672H337.979V75.0718H354.35V52.1885C354.35 49.7162 354.531 47.7264 354.893 46.2189C355.315 44.6511 355.858 43.4452 356.521 42.601C357.245 41.6965 358.059 41.0935 358.963 40.792C359.868 40.4905 360.833 40.3398 361.858 40.3398C363.064 40.3398 364.119 40.5207 365.023 40.8825C365.928 41.184 366.651 41.7869 367.194 42.6914C367.797 43.5959 368.249 44.832 368.551 46.3998C368.852 47.9073 369.003 49.8368 369.003 52.1885V75.0718H385.374V52.1885C385.374 44.5305 387.997 40.7016 393.243 40.7016C394.208 40.7016 395.112 40.8523 395.956 41.1538C396.801 41.4553 397.524 42.0281 398.127 42.8723C398.791 43.7165 399.273 44.8923 399.574 46.3998C399.936 47.9073 400.117 49.8368 400.117 52.1885V75.0718H416.488V44.9526C416.488 41.8774 416.066 39.2544 415.222 37.0837C414.438 34.9129 413.353 33.1642 411.966 31.8377C410.579 30.4508 408.921 29.4559 406.991 28.8529C405.062 28.1896 403.011 27.858 400.841 27.858C394.027 27.858 388.781 30.7824 385.103 36.6314C381.485 30.8427 376.239 27.9484 369.365 27.9484C363.817 27.9484 358.812 30.089 354.35 34.3702V28.672ZM199.953 28.672V75.0718H183.582V28.672H199.953ZM182.497 10.8537C182.497 9.58743 182.738 8.41161 183.221 7.32623C183.703 6.18056 184.366 5.18563 185.21 4.34144C186.055 3.49726 187.019 2.83398 188.105 2.35159C189.25 1.8692 190.456 1.62801 191.723 1.62801C192.989 1.62801 194.165 1.8692 195.25 2.35159C196.396 2.83398 197.391 3.49726 198.235 4.34144C199.079 5.18563 199.742 6.18056 200.225 7.32623C200.707 8.41161 200.948 9.58743 200.948 10.8537C200.948 12.12 200.707 13.326 200.225 14.4716C199.742 15.557 199.079 16.5218 198.235 17.366C197.391 18.2101 196.396 18.8734 195.25 19.3558C194.165 19.8382 192.989 20.0794 191.723 20.0794C190.456 20.0794 189.25 19.8382 188.105 19.3558C187.019 18.8734 186.055 18.2101 185.21 17.366C184.366 16.5218 183.703 15.557 183.221 14.4716C182.738 13.326 182.497 12.12 182.497 10.8537ZM136.525 55.8969C135.982 54.5703 135.711 53.1533 135.711 51.6459C135.711 50.1987 135.982 48.842 136.525 47.5757C137.128 46.3094 137.912 45.224 138.877 44.3196C139.841 43.3548 140.957 42.6011 142.223 42.0584C143.49 41.4554 144.846 41.1539 146.293 41.1539C147.68 41.1539 149.007 41.4252 150.273 41.9679C151.6 42.5106 152.745 43.2643 153.71 44.2291C154.675 45.1939 155.429 46.3094 155.971 47.5757C156.574 48.842 156.876 50.2288 156.876 51.7363C156.876 53.1835 156.574 54.5703 155.971 55.8969C155.429 57.1632 154.675 58.2787 153.71 59.2435C152.806 60.2083 151.69 60.962 150.364 61.5047C149.097 62.0474 147.741 62.3187 146.293 62.3187C144.786 62.3187 143.369 62.0474 142.042 61.5047C140.776 60.962 139.661 60.2083 138.696 59.2435C137.791 58.2787 137.068 57.1632 136.525 55.8969ZM172.433 71.9062V28.6721H156.062V33.5563C152.323 29.4559 147.71 27.4058 142.223 27.4058C138.847 27.4058 135.711 28.0691 132.817 29.3956C129.983 30.6619 127.51 32.4407 125.4 34.7321C123.35 36.9631 121.722 39.6163 120.516 42.6915C119.31 45.7064 118.707 48.9927 118.707 52.5503C118.707 56.0477 119.249 59.2435 120.335 62.1378C121.481 64.9719 123.048 67.414 125.038 69.4641C127.088 71.5143 129.5 73.1122 132.274 74.2579C135.048 75.4035 138.093 75.9764 141.409 75.9764C142.917 75.9764 144.304 75.8558 145.57 75.6146C146.836 75.4337 148.042 75.102 149.188 74.6197C150.333 74.1373 151.449 73.5343 152.534 72.8107C153.68 72.0268 154.856 71.062 156.062 69.9164V74.3483C156.062 77.7853 155.127 80.4686 153.258 82.3982C151.449 84.3277 148.826 85.2925 145.389 85.2925C141.349 85.2925 138.756 83.7549 137.61 80.6797H119.159C119.641 83.2122 120.606 85.5337 122.053 87.6442C123.501 89.8149 125.34 91.6842 127.571 93.2519C129.862 94.88 132.515 96.1463 135.53 97.0508C138.545 97.9552 141.861 98.4075 145.479 98.4075C148.675 98.4075 151.63 98.0457 154.343 97.3221C157.117 96.5985 159.589 95.6036 161.76 94.3373C163.931 93.0711 165.77 91.5636 167.277 89.8149C168.845 88.1266 169.991 86.2875 170.714 84.2976C171.257 82.7298 171.679 80.9209 171.981 78.8707C172.282 76.8206 172.433 74.4991 172.433 71.9062ZM76.3818 28.672V54.8115C76.3818 60.5399 79.1555 63.4041 84.703 63.4041C90.2505 63.4041 93.0242 60.5399 93.0242 54.8115V28.672H109.395V57.9772C109.395 64.2483 107.315 68.9516 103.154 72.0871C99.0541 75.2226 92.9036 76.7904 84.703 76.7904C76.5024 76.7904 70.3218 75.2226 66.1611 72.0871C62.0608 68.9516 60.0107 64.2483 60.0107 57.9772V28.672H76.3818ZM34.732 20.8934C36.6616 21.617 38.5912 22.7627 40.5207 24.3305L47.5757 10.4919C44.1989 8.68295 40.6715 7.32623 36.9932 6.42174C33.315 5.45697 29.7875 4.97458 26.4108 4.97458C22.7929 4.97458 19.5066 5.51727 16.552 6.60264C13.6577 7.68802 11.1854 9.22564 9.13525 11.2155C7.14539 13.1451 5.57763 15.4967 4.43195 18.2704C3.34658 20.9839 2.80389 24.029 2.80389 27.4057C2.80389 30.7824 3.31643 33.5863 4.3415 35.8174C5.42688 37.9881 6.81375 39.7971 8.50211 41.2442C10.2508 42.6914 12.2105 43.8672 14.3812 44.7717C16.6123 45.6159 18.8735 46.3998 21.1648 47.1234C23.0944 47.7866 24.7225 48.3896 26.049 48.9323C27.4359 49.475 28.5514 50.078 29.3956 50.7413C30.2398 51.3443 30.8428 52.0377 31.2046 52.8216C31.5664 53.5452 31.7473 54.4195 31.7473 55.4446C31.7473 57.1329 31.0237 58.6404 29.5765 59.967C28.1896 61.2935 26.049 61.9568 23.1547 61.9568C20.6221 61.9568 18.0595 61.384 15.4666 60.2383C12.8738 59.0926 10.2508 57.344 7.59763 54.9923L0 69.2831C7.35644 74.4085 15.346 76.9712 23.9687 76.9712C28.1293 76.9712 31.8377 76.3984 35.0938 75.2527C38.4103 74.1673 41.184 72.6297 43.415 70.6398C45.7064 68.5897 47.4249 66.1476 48.5706 63.3136C49.7766 60.4795 50.3795 57.3138 50.3795 53.8165C50.3795 48.6308 49.0228 44.4401 46.3094 41.2442C43.6562 37.9881 39.4353 35.3953 33.6467 33.4657C32.1995 32.9833 30.7222 32.5311 29.2147 32.109C27.7675 31.6869 26.441 31.2045 25.235 30.6618C24.0893 30.0588 23.1547 29.3654 22.4311 28.5815C21.7075 27.7976 21.3457 26.8027 21.3457 25.5967C21.3457 23.8481 22.0693 22.431 23.5165 21.3457C24.9637 20.2603 26.8329 19.7176 29.1243 19.7176C30.9332 19.7176 32.8025 20.1095 34.732 20.8934Z" fill="url(#paint0_linear_87_77857)"/>
<defs>
<linearGradient id="paint0_linear_87_77857" x1="3.32714e-06" y1="50.0377" x2="480" y2="50.0377" gradientUnits="userSpaceOnUse">
<stop stop-color="#A6C1EE"/>
<stop offset="1" stop-color="#FBC2EB"/>
</linearGradient>
</defs>
</svg>
