<svg width="25" height="24" viewBox="0 0 25 24" fill="none" xmlns="http://www.w3.org/2000/svg">
<mask id="mask0_6_774" style="mask-type:alpha" maskUnits="userSpaceOnUse" x="0" y="0" width="25" height="24">
<rect x="0.642578" width="24" height="24" fill="#D9D9D9"/>
</mask>
<g mask="url(#mask0_6_774)">
<path d="M4.64258 20C4.09258 20 3.62174 19.8042 3.23008 19.4125C2.83841 19.0208 2.64258 18.55 2.64258 18V6C2.64258 5.45 2.83841 4.97917 3.23008 4.5875C3.62174 4.19583 4.09258 4 4.64258 4H20.6426C21.1926 4 21.6634 4.19583 22.0551 4.5875C22.4467 4.97917 22.6426 5.45 22.6426 6V18C22.6426 18.55 22.4467 19.0208 22.0551 19.4125C21.6634 19.8042 21.1926 20 20.6426 20H4.64258ZM12.6426 13L20.6426 8V6L12.6426 11L4.64258 6V8L12.6426 13Z" fill="black"/>
</g>
</svg>
