<svg width="25" height="24" viewBox="0 0 25 24" fill="none" xmlns="http://www.w3.org/2000/svg">
<mask id="mask0_29_8" style="mask-type:alpha" maskUnits="userSpaceOnUse" x="0" y="0" width="25" height="24">
<rect x="0.642578" width="24" height="24" fill="#D9D9D9"/>
</mask>
<g mask="url(#mask0_29_8)">
<path d="M12.5426 22L17.0926 10H19.1926L23.7426 22H21.6426L20.5676 18.95H15.7176L14.6426 22H12.5426ZM4.64258 19L3.24258 17.6L8.29258 12.55C7.70924 11.9667 7.18008 11.3 6.70508 10.55C6.23008 9.8 5.79258 8.95 5.39258 8H7.49258C7.82591 8.65 8.15924 9.21667 8.49258 9.7C8.82591 10.1833 9.22591 10.6667 9.69258 11.15C10.2426 10.6 10.8134 9.82917 11.4051 8.8375C11.9967 7.84583 12.4426 6.9 12.7426 6H1.64258V4H8.64258V2H10.6426V4H17.6426V6H14.7426C14.3926 7.2 13.8676 8.43333 13.1676 9.7C12.4676 10.9667 11.7759 11.9333 11.0926 12.6L13.4926 15.05L12.7426 17.1L9.69258 13.975L4.64258 19ZM16.3426 17.2H19.9426L18.1426 12.1L16.3426 17.2Z" fill="black"/>
</g>
</svg>
